# xmcd
#
# Track frame offsets: 
#        150
#        21750
#        48961
#        73502
#        99828
#        124939
#        160130
#        193506
#        228157
#        261084
#        289809
#
# Disc length: 4223 seconds
#
# Revision: 1
# Processed by: cddbd v1.5.2PL0 Copyright (c) Steve Scherf et al.
# Submitted via: ExactAudioCopy v0.99pb5
#
DISCID=8d107d0b
DTITLE=Chano Dominguez Trio - Con Alma
DYEAR=2003
DGENRE=Jazz
TTITLE0=La Tarara
TTITLE1=No Me Patiques Mas
TTITLE2=How About You?
TTITLE3=Dolphin Dance
TTITLE4=Con Alma
TTITLE5=El Toro Y La Luna
TTITLE6=It Could Happen To You
TTITLE7=Hullo Bolinas
TTITLE8=Jure
TTITLE9=Speak Low
TTITLE10=Darn That Dream
EXTD=YEAR: 2003
EXTT0=
EXTT1=
EXTT2=
EXTT3=
EXTT4=
EXTT5=
EXTT6=
EXTT7=
EXTT8=
EXTT9=
EXTT10=
PLAYORDER=
